<svg xmlns="http://www.w3.org/2000/svg" version="1.1" xmlns:xlink="http://www.w3.org/1999/xlink" viewBox="0 0 200 200"><rect width="200" height="200" fill="url('#gradient')"></rect><defs><linearGradient id="gradient" gradientTransform="rotate(45 0.5 0.5)"><stop offset="0%" stop-color="#57958b"></stop><stop offset="100%" stop-color="#b325a9"></stop></linearGradient></defs><g><g fill="#174840" transform="matrix(2.911388406254936,0,0,2.911388406254936,10.082981908350561,120.41055100390817)" stroke="#3a7671" stroke-width="0.2"><path d="M3.77-14.22L6.59-3.87L9.42-14.22L13.25-14.22L8.47 0L4.72 0L-0.03-14.22L3.77-14.22ZM23.11-8.57L23.11-6.03L17.71-6.03L17.71-2.64L24.08-2.64L24.08 0L14.29 0L14.29-14.22L24.10-14.22L24.10-11.57L17.71-11.57L17.71-8.57L23.11-8.57ZM33.27 0L30.76-5.02L28.91-5.02L28.91 0L25.48 0L25.48-14.22L31.07-14.22Q33.60-14.22 35.03-13.10Q36.46-11.97 36.46-9.92L36.46-9.92Q36.46-8.44 35.85-7.46Q35.25-6.48 33.97-5.88L33.97-5.88L36.94-0.15L36.94 0L33.27 0ZM28.91-11.57L28.91-7.67L31.07-7.67Q32.05-7.67 32.54-8.18Q33.04-8.69 33.04-9.61Q33.04-10.53 32.54-11.05Q32.04-11.57 31.07-11.57L31.07-11.57L28.91-11.57ZM49.20-14.22L49.20-11.57L44.93-11.57L44.93 0L41.50 0L41.50-11.57L37.31-11.57L37.31-14.22L49.20-14.22ZM58.37-14.22L61.80-14.22L61.80-4.91Q61.80-3.33 61.12-2.17Q60.45-1.02 59.19-0.41Q57.93 0.20 56.21 0.20L56.21 0.20Q53.61 0.20 52.12-1.15Q50.63-2.50 50.60-4.84L50.60-4.84L50.60-14.22L54.04-14.22L54.04-4.78Q54.10-2.44 56.21-2.44L56.21-2.44Q57.28-2.44 57.82-3.03Q58.37-3.61 58.37-4.93L58.37-4.93L58.37-14.22Z"></path></g></g></svg>